<svg data-v-423bf9ae="" xmlns="http://www.w3.org/2000/svg" viewBox="0 0 264 90" class="iconLeft"><!----><defs data-v-423bf9ae=""><linearGradient data-v-423bf9ae="" gradientTransform="rotate(25)" id="679629a5-c809-4127-854b-67152e9c8c32" x1="0%" y1="0%" x2="100%" y2="0%"><stop data-v-423bf9ae="" offset="0%" style="stop-color: rgb(214, 65, 63); stop-opacity: 1;"></stop><stop data-v-423bf9ae="" offset="100%" style="stop-color: rgb(66, 133, 211); stop-opacity: 1;"></stop></linearGradient></defs><!----><g data-v-423bf9ae="" id="ae0dbbe8-d2b2-4b89-a7cd-2cd81c097b86" fill="#ffffff" transform="matrix(3.303964853286743,0,0,3.303964853286743,111.49307250976562,11.035242080688477)"><path d="M7.57 9.98Q7.64 10.07 7.90 10.35Q8.16 10.63 8.32 10.91Q8.48 11.20 8.48 11.47L8.48 11.47Q8.48 11.80 8.23 12.10L8.23 12.10Q7.92 12.47 7.48 12.47L7.48 12.47Q7.28 12.47 7.04 12.42Q6.80 12.36 6.73 12.35L6.73 12.35Q5.63 12.12 4.16 12.12L4.16 12.12Q3.02 12.12 1.75 12.24L1.75 12.24Q1.64 12.25 1.43 12.26Q1.22 12.28 1.05 12.28L1.05 12.28Q0.55 12.28 0.24 12.12Q-0.06 11.96-0.06 11.52L-0.06 11.52Q-0.06 11.27 0.04 10.98Q0.14 10.70 0.34 10.29L0.34 10.29L0.46 10.00Q0.67 9.48 0.92 9.21Q1.18 8.93 1.64 8.93L1.64 8.93Q2.02 8.93 2.23 9.18Q2.45 9.42 2.45 9.79L2.45 9.79Q2.45 10.04 2.32 10.29L2.32 10.29Q3.21 10.23 4.33 10.23L4.33 10.23Q4.98 10.23 5.32 10.25L5.32 10.25Q4.03 8.62 3.40 7.80L3.40 7.80L2.44 6.58Q2.21 6.30 2.06 6.15L2.06 6.15Q1.54 5.54 1.27 5.12Q1.01 4.69 1.01 4.24L1.01 4.24Q1.01 3.82 1.31 3.56Q1.61 3.30 2.02 3.17Q2.44 3.04 3.07 2.91L3.07 2.91L3.65 2.79Q4.76 2.51 5.94 2.28L5.94 2.28Q6.03 2.27 6.33 2.21L6.33 2.21Q6.80 2.09 7.17 2.09L7.17 2.09Q7.63 2.09 7.87 2.34L7.87 2.34Q8.12 2.60 8.12 2.88L8.12 2.88Q8.12 3.15 7.96 3.42Q7.80 3.68 7.45 4.12L7.45 4.12Q7.03 4.62 6.92 4.86L6.92 4.86Q6.73 5.25 6.53 5.52Q6.33 5.78 6.08 5.78L6.08 5.78Q5.89 5.78 5.71 5.64L5.71 5.64Q5.52 5.49 5.52 5.22L5.52 5.22Q5.52 5.03 5.61 4.81Q5.70 4.59 5.79 4.41Q5.88 4.23 5.91 4.19L5.91 4.19Q5.19 4.31 3.79 4.68L3.79 4.68Q3.63 4.73 3.11 4.86L3.11 4.86L4.79 6.79Q6.94 9.24 7.57 9.98L7.57 9.98ZM14.87 9.14L14.91 9.44Q15.15 11.19 15.26 11.89L15.26 11.89Q15.32 12.24 14.95 12.50Q14.59 12.77 14.18 12.77L14.18 12.77Q13.94 12.77 13.79 12.66Q13.64 12.56 13.61 12.33L13.61 12.33L13.50 11.42Q13.30 9.88 13.17 9.11L13.17 9.11Q13.10 8.67 12.98 8.37Q12.85 8.06 12.57 7.91L12.57 7.91Q12.39 7.83 12.15 7.83L12.15 7.83Q11.86 7.83 11.49 7.92L11.49 7.92Q11.24 10.02 10.67 12.22L10.67 12.22Q10.60 12.52 10.17 12.73Q9.74 12.95 9.35 12.95L9.35 12.95Q9.10 12.95 8.97 12.86Q8.85 12.77 8.90 12.57L8.90 12.57Q9.52 10.36 9.79 8.15L9.79 8.15Q9.51 8.15 9.30 8.04Q9.09 7.94 9.09 7.77L9.09 7.77Q9.09 7.57 9.37 7.38L9.37 7.38L9.91 6.99Q10.02 5.74 10.02 4.16L10.02 4.16Q10.02 3.26 9.98 2.37L9.98 2.37Q9.97 2.09 10.35 1.86Q10.72 1.64 11.13 1.64L11.13 1.64Q11.35 1.64 11.50 1.73Q11.65 1.82 11.66 2.02L11.66 2.02Q11.72 2.97 11.72 4.13L11.72 4.13Q11.72 5.14 11.69 5.63L11.69 5.63Q12.19 5.18 12.67 4.69L12.67 4.69L13.09 4.28Q13.29 4.10 13.54 3.98Q13.79 3.86 14.04 3.86L14.04 3.86Q14.20 3.86 14.38 3.94Q14.56 4.02 14.56 4.16L14.56 4.16Q14.56 4.24 14.50 4.31L14.50 4.31Q13.65 5.52 12.01 6.79L12.01 6.79Q12.47 6.69 12.84 6.69L12.84 6.69Q13.86 6.69 14.36 7.36L14.36 7.36Q14.59 7.66 14.68 8.00Q14.77 8.34 14.81 8.68Q14.85 9.02 14.87 9.14L14.87 9.14ZM18.83 4.61Q18.80 4.31 19.20 4.08Q19.60 3.85 19.99 3.85L19.99 3.85Q20.43 3.85 20.47 4.14L20.47 4.14Q20.78 6.38 20.94 7.99Q21.11 9.60 21.11 11.19L21.11 11.19Q21.11 13.31 20.78 14.95L20.78 14.95Q20.51 16.25 20.01 17.29Q19.50 18.33 18.62 18.90L18.62 18.90Q17.89 19.36 17.15 19.36L17.15 19.36Q16.46 19.36 15.81 19.01Q15.15 18.65 14.57 18.03L14.57 18.03Q14.46 17.89 14.46 17.79L14.46 17.79Q14.46 17.51 14.86 17.27Q15.26 17.02 15.67 17.02L15.67 17.02Q15.95 17.02 16.10 17.18L16.10 17.18Q16.17 17.25 16.44 17.53Q16.70 17.81 16.99 18.00Q17.28 18.20 17.51 18.20L17.51 18.20Q17.64 18.20 17.70 18.17L17.70 18.17Q17.96 18.07 18.16 17.71Q18.37 17.35 18.49 17.04Q18.62 16.73 18.65 16.66L18.65 16.66Q18.98 15.82 19.14 14.89Q19.29 13.96 19.35 12.81L19.35 12.81Q19.38 11.91 19.38 11.45L19.38 11.45Q19.01 12.11 18.52 12.48Q18.03 12.85 17.33 12.85L17.33 12.85Q16.34 12.85 16.04 11.96Q15.74 11.07 15.72 9.79L15.72 9.79L15.71 9.23Q15.71 7.04 16.16 5.12L16.16 5.12Q16.21 4.86 16.63 4.65Q17.05 4.44 17.43 4.44L17.43 4.44Q17.63 4.44 17.74 4.52Q17.85 4.61 17.82 4.76L17.82 4.76Q17.50 6.38 17.42 8.27L17.42 8.27Q17.39 8.86 17.39 9.18L17.39 9.18Q17.39 9.72 17.46 10.37L17.46 10.37Q17.54 10.96 17.65 11.21L17.65 11.21L17.77 11.44Q17.86 11.26 18.03 10.89L18.03 10.89Q18.38 10.00 18.59 8.74L18.59 8.74L18.72 8.05Q18.98 6.80 18.98 6.08L18.98 6.08Q18.98 5.71 18.96 5.53L18.96 5.53L18.83 4.61ZM27.82 11.14Q28.03 11.21 28.03 11.40L28.03 11.40Q28.03 11.62 27.76 11.89L27.76 11.89Q27.47 12.18 27.01 12.18L27.01 12.18Q26.78 12.18 26.63 12.12L26.63 12.12Q25.89 11.89 25.28 11.89L25.28 11.89Q24.23 11.89 23.14 12.56L23.14 12.56Q22.96 12.68 22.70 12.76Q22.44 12.84 22.22 12.84L22.22 12.84Q22.01 12.84 21.88 12.76Q21.76 12.68 21.76 12.52L21.76 12.52Q21.76 12.42 21.78 12.35L21.78 12.35Q22.19 11.21 22.43 10.30Q22.68 9.39 22.76 8.46L22.76 8.46Q22.89 7.20 22.89 6.61L22.89 6.61Q22.89 5.05 22.29 4.23L22.29 4.23Q22.22 4.14 22.22 4.00L22.22 4.00Q22.22 3.72 22.61 3.48Q23.00 3.23 23.38 3.23L23.38 3.23Q23.63 3.23 23.74 3.35L23.74 3.35Q23.93 3.42 23.98 3.57L23.98 3.57Q24.33 4.49 24.95 5.13Q25.56 5.77 26.40 5.77L26.40 5.77Q26.56 5.77 26.87 5.71L26.87 5.71Q27.06 5.68 27.12 5.68L27.12 5.68Q27.36 5.68 27.48 5.79Q27.59 5.89 27.59 6.08L27.59 6.08Q27.59 6.27 27.43 6.47Q27.27 6.66 27.01 6.75L27.01 6.75Q26.43 6.94 25.86 6.94L25.86 6.94Q25.17 6.94 24.54 6.66L24.54 6.66Q24.51 7.45 24.47 7.84L24.47 7.84L24.37 8.72Q24.92 8.62 25.47 8.55L25.47 8.55L25.66 8.54Q26.22 8.54 26.22 8.92L26.22 8.92Q26.22 9.17 25.94 9.37Q25.66 9.56 25.37 9.62L25.37 9.62Q24.93 9.70 24.18 9.80L24.18 9.80Q24.02 10.49 23.84 11.09L23.84 11.09Q24.77 10.75 25.72 10.75L25.72 10.75Q26.77 10.75 27.82 11.14L27.82 11.14ZM30.63 1.47Q30.84 1.30 31.09 1.26L31.09 1.26L31.14 1.26Q31.36 1.26 31.43 1.46L31.43 1.46Q31.51 1.61 31.54 1.88L31.54 1.88Q31.57 2.02 31.57 2.07L31.57 2.07Q31.77 2.76 31.93 3.27Q32.09 3.78 32.20 4.13L32.20 4.13Q32.31 4.51 32.55 5.27Q32.79 6.03 32.96 6.62L32.96 6.62Q33.01 6.80 33.03 6.86L33.03 6.86Q33.03 6.47 33.00 5.68L33.00 5.68L32.98 5.10L32.97 4.73Q32.96 4.16 32.92 3.78Q32.89 3.40 32.79 3.04L32.79 3.04Q32.79 2.67 32.90 2.39L32.90 2.39L33.07 2.03Q33.22 1.74 33.53 1.44L33.53 1.44Q33.75 1.25 34.02 1.20L34.02 1.20Q34.26 1.20 34.38 1.41L34.38 1.41Q34.59 1.96 34.62 2.60L34.62 2.60Q34.62 3.00 34.64 3.18L34.64 3.18Q34.64 3.91 34.65 4.26L34.65 4.26Q34.65 5.03 34.62 6.54L34.62 6.54Q34.62 7.31 34.54 8.82L34.54 8.82L34.52 9.11Q34.51 9.27 34.49 9.65Q34.47 10.02 34.43 10.32L34.43 10.32Q34.30 11.26 34.12 11.80L34.12 11.80Q33.96 12.21 33.84 12.43L33.84 12.43Q33.70 12.70 33.36 13.01L33.36 13.01Q33.12 13.22 32.90 13.22L32.90 13.22Q32.82 13.22 32.73 13.17L32.73 13.17Q32.51 13.06 32.35 12.59L32.35 12.59Q32.23 12.19 32.10 11.66L32.10 11.66Q32.02 11.27 31.99 11.07L31.99 11.07Q31.84 10.29 31.77 10.01L31.77 10.01Q31.61 9.23 31.25 7.69L31.25 7.69Q30.79 10.54 29.82 12.42L29.82 12.42Q29.72 12.63 29.55 12.81Q29.37 12.99 29.19 13.08L29.19 13.08Q29.09 13.13 28.97 13.13L28.97 13.13Q28.85 13.13 28.80 13.10L28.80 13.10Q28.62 12.98 28.62 12.67L28.62 12.67Q28.62 12.54 28.63 12.49L28.63 12.49Q28.70 12.14 28.85 11.87L28.85 11.87L28.88 11.82Q29.13 11.24 29.33 10.56L29.33 10.56Q29.55 9.62 29.68 8.62Q29.81 7.63 29.90 6.36L29.90 6.36Q29.93 5.66 29.93 5.33L29.93 5.33L29.92 4.61Q29.92 4.35 29.90 4.21L29.90 4.21Q29.90 4.12 29.90 3.97Q29.89 3.82 29.90 3.63L29.90 3.63Q29.90 3.15 29.92 2.88Q29.95 2.60 30.04 2.35L30.04 2.35Q30.27 1.78 30.63 1.47L30.63 1.47ZM41.26 11.14Q41.47 11.21 41.47 11.40L41.47 11.40Q41.47 11.62 41.20 11.89L41.20 11.89Q40.91 12.18 40.45 12.18L40.45 12.18Q40.22 12.18 40.07 12.12L40.07 12.12Q39.33 11.89 38.72 11.89L38.72 11.89Q37.67 11.89 36.58 12.56L36.58 12.56Q36.40 12.68 36.14 12.76Q35.88 12.84 35.66 12.84L35.66 12.84Q35.45 12.84 35.32 12.76Q35.20 12.68 35.20 12.52L35.20 12.52Q35.20 12.42 35.22 12.35L35.22 12.35Q35.63 11.21 35.88 10.30Q36.12 9.39 36.20 8.46L36.20 8.46Q36.33 7.20 36.33 6.61L36.33 6.61Q36.33 5.05 35.73 4.23L35.73 4.23Q35.66 4.14 35.66 4.00L35.66 4.00Q35.66 3.72 36.05 3.48Q36.44 3.23 36.82 3.23L36.82 3.23Q37.07 3.23 37.18 3.35L37.18 3.35Q37.37 3.42 37.42 3.57L37.42 3.57Q37.77 4.49 38.39 5.13Q39.00 5.77 39.84 5.77L39.84 5.77Q40.00 5.77 40.31 5.71L40.31 5.71Q40.50 5.68 40.56 5.68L40.56 5.68Q40.80 5.68 40.91 5.79Q41.03 5.89 41.03 6.08L41.03 6.08Q41.03 6.27 40.87 6.47Q40.71 6.66 40.45 6.75L40.45 6.75Q39.87 6.94 39.30 6.94L39.30 6.94Q38.61 6.94 37.98 6.66L37.98 6.66Q37.95 7.45 37.91 7.84L37.91 7.84L37.81 8.72Q38.36 8.62 38.91 8.55L38.91 8.55L39.10 8.54Q39.66 8.54 39.66 8.92L39.66 8.92Q39.66 9.17 39.38 9.37Q39.10 9.56 38.81 9.62L38.81 9.62Q38.37 9.70 37.62 9.80L37.62 9.80Q37.46 10.49 37.28 11.09L37.28 11.09Q38.21 10.75 39.16 10.75L39.16 10.75Q40.21 10.75 41.26 11.14L41.26 11.14ZM45.18 4.28Q45.47 4.26 45.63 4.35Q45.79 4.45 45.98 4.73L45.98 4.73Q46.09 4.91 46.09 5.04L46.09 5.04Q46.09 5.35 45.70 5.40L45.70 5.40L45.21 5.46Q44.52 5.56 44.48 5.56L44.48 5.56Q44.24 7.80 44.10 9.45Q43.96 11.10 43.92 12.71L43.92 12.71Q43.90 12.91 43.76 13.01Q43.61 13.10 43.37 13.10L43.37 13.10Q42.95 13.10 42.54 12.87Q42.13 12.64 42.14 12.35L42.14 12.35Q42.18 10.86 42.31 9.32Q42.43 7.77 42.64 5.73L42.64 5.73L41.76 5.84Q41.57 5.85 41.46 5.82Q41.36 5.78 41.26 5.66Q41.16 5.53 41.06 5.38L41.06 5.38Q40.95 5.22 40.95 5.07L40.95 5.07Q40.95 4.94 41.05 4.84Q41.15 4.75 41.34 4.72L41.34 4.72Q41.65 4.68 42.06 4.62L42.06 4.62L42.77 4.52L43.02 2.10Q43.06 1.71 43.60 1.71L43.60 1.71Q44.02 1.71 44.41 1.94Q44.81 2.17 44.79 2.46L44.79 2.46L44.60 4.34Q45.00 4.31 45.18 4.28L45.18 4.28Z"></path></g><!----><g data-v-423bf9ae="" id="279ab0a4-300f-49c4-8dd6-b31c439fdcab" transform="matrix(2.8520724773406982,0,0,2.8520724773406982,0.36184200644493103,-0.4111595153808594)" stroke="none" fill="#ffffff"><path d="M16 23.787L8.102 16 16 8.213 23.898 16 16 23.787zM9.525 16L16 22.383 22.475 16 16 9.617 9.525 16z"></path><path d="M15.915 31.778L-.005 16.084 16.085.222l15.92 15.694-16.09 15.862zM1.419 16.084l14.496 14.29 14.666-14.458-14.496-14.29L1.419 16.084z"></path><path d="M15.5.924h1v30.152h-1z"></path></g><!----></svg>